<?xml version="1.0" encoding="UTF-8" standalone="no"?>
<svg
   xmlns:osb="http://www.openswatchbook.org/uri/2009/osb"
   xmlns:dc="http://purl.org/dc/elements/1.1/"
   xmlns:cc="http://creativecommons.org/ns#"
   xmlns:rdf="http://www.w3.org/1999/02/22-rdf-syntax-ns#"
   xmlns:svg="http://www.w3.org/2000/svg"
   xmlns="http://www.w3.org/2000/svg"
   xmlns:xlink="http://www.w3.org/1999/xlink"
   id="svg181"
   viewBox="0 0 135.46666 135.46666"
   version="1.1"
   height="512"
   width="512">
  <metadata
     id="metadata185">
    <rdf:RDF>
      <cc:Work
         rdf:about="">
        <dc:format>image/svg+xml</dc:format>
        <dc:type
           rdf:resource="http://purl.org/dc/dcmitype/StillImage" />
        <dc:title></dc:title>
      </cc:Work>
    </rdf:RDF>
  </metadata>
  <defs
     id="defs147">
    <linearGradient
       id="linearGradient4705">
      <stop
         style="stop-color:#f8f8f8;stop-opacity:1;"
         offset="0"
         id="stop4701" />
      <stop
         style="stop-color:#f8f8f8;stop-opacity:0;"
         offset="1"
         id="stop4703" />
    </linearGradient>
    <linearGradient
       osb:paint="gradient"
       id="linearGradient5474">
      <stop
         id="stop5470"
         offset="0"
         style="stop-color:#000000;stop-opacity:1;" />
      <stop
         id="stop5472"
         offset="1"
         style="stop-color:#000000;stop-opacity:0;" />
    </linearGradient>
    <filter
       color-interpolation-filters="sRGB"
       id="d"
       x="-.024"
       y="-.024"
       width="1.048"
       height="1.048">
      <feGaussianBlur
         stdDeviation="13.532652"
         id="feGaussianBlur144" />
    </filter>
    <linearGradient
       xlink:href="#linearGradient4705"
       id="linearGradient4707"
       x1="12.579197"
       y1="182.73875"
       x2="356.06076"
       y2="182.73875"
       gradientUnits="userSpaceOnUse" />
    <linearGradient
       xlink:href="#linearGradient4705"
       id="linearGradient4709"
       gradientUnits="userSpaceOnUse"
       x1="12.579197"
       y1="182.73875"
       x2="356.06076"
       y2="182.73875" />
    <linearGradient
       xlink:href="#linearGradient4705"
       id="linearGradient4711"
       gradientUnits="userSpaceOnUse"
       x1="12.579197"
       y1="182.73875"
       x2="356.06076"
       y2="182.73875" />
    <linearGradient
       xlink:href="#linearGradient4705"
       id="linearGradient4713"
       gradientUnits="userSpaceOnUse"
       x1="12.579197"
       y1="182.73875"
       x2="356.06076"
       y2="182.73875" />
    <linearGradient
       xlink:href="#linearGradient4705"
       id="linearGradient4715"
       gradientUnits="userSpaceOnUse"
       x1="12.579197"
       y1="182.73875"
       x2="356.06076"
       y2="182.73875" />
    <linearGradient
       xlink:href="#linearGradient4705"
       id="linearGradient4717"
       gradientUnits="userSpaceOnUse"
       x1="12.579197"
       y1="182.73875"
       x2="356.06076"
       y2="182.73875" />
    <linearGradient
       xlink:href="#linearGradient4705"
       id="linearGradient4719"
       gradientUnits="userSpaceOnUse"
       x1="12.579197"
       y1="182.73875"
       x2="356.06076"
       y2="182.73875" />
  </defs>
  <path
     id="shape0"
     d="m 69.429091,24.426934 v 0.254767 c -2.458853,-0.05022 -5.402617,-0.06965 -7.649147,0.101285 l -2.091861,3.667993 -2.886128,-2.257227 -8.604641,9.074898 -1.545643,9.737905 -13.273092,-13.168704 c -1.845977,-1.199837 -3.14749,-1.827188 -3.904154,-1.881539 -2.804237,-0.201374 -5.432693,2.258348 -5.660636,3.76256 -0.346219,2.284762 -0.03259,26.177781 0.09767,28.031365 0.204834,2.914676 3.360539,5.485735 9.467121,7.713223 v 11.757937 l -1.659329,1.411285 -6.148979,-5.079794 c -1.161429,-0.197535 -1.844529,-0.197535 -2.049487,0 -0.527035,0.507945 -0.527035,2.201434 0,5.079794 l 4.099491,9.782349 c 3.299766,0.706802 5.802807,1.208695 7.510652,1.504815 -0.03952,1.5e-4 -0.03996,3.8e-4 -0.08062,5.2e-4 -4.967303,6.306474 -0.365151,0.44409 -4.941299,6.348964 -0.398367,0.23934 -0.04835,0.32447 -0.131258,2.44378 15.969996,-0.43844 0.937537,0.004 16.666683,-0.43253 2.60264,2.50837 5.20515,5.01674 7.80779,7.52512 l 6.253882,1.23403 h 8.686292 5.368147 l 6.253366,-1.23403 c 2.60264,-2.50837 5.205666,-5.01674 7.808306,-7.52512 15.729143,0.43644 0.696687,-0.006 16.666683,0.43253 -0.0829,-2.11932 0.26712,-2.20444 -0.13125,-2.44378 -4.57615,-5.904874 0.026,-0.0425 -4.9413,-6.348964 -0.0407,-1.4e-4 -0.0411,-3.7e-4 -0.0806,-5.2e-4 1.70785,-0.29612 4.21089,-0.798013 7.51065,-1.504815 l 4.09949,-9.782349 c 0.52704,-2.878357 0.52704,-4.571849 0,-5.079794 -0.20495,-0.197535 -0.88857,-0.197535 -2.05,0 l -6.14846,5.079794 -1.65933,-1.411285 V 69.46346 c 6.10658,-2.227485 9.26228,-4.798547 9.46712,-7.713223 0.1303,-1.853584 0.44389,-25.746603 0.0977,-28.031365 -0.22795,-1.504212 -2.8564,-3.963934 -5.66064,-3.76256 -0.75666,0.05435 -2.05818,0.681702 -3.90415,1.881539 L 88.81447,45.006555 87.269343,35.26865 78.664186,26.193752 75.778574,28.450979 73.686712,24.782986 c -4.070693,-0.309742 -3.0051,-0.356052 -4.257621,-0.356052 z"
     style="fill:none;stroke:#ffffff;stroke-width:7.67291629;stroke-linecap:square;stroke-linejoin:miter;stroke-miterlimit:4;stroke-dasharray:none;stroke-opacity:1" />
  <style
     id="style179">.st0{fill:#e0e0e0}.st1{fill:#fff}.st2{clip-path:url(#SVGID_2_);fill:#fbbc05}.st3{clip-path:url(#SVGID_4_);fill:#ea4335}.st4{clip-path:url(#SVGID_6_);fill:#34a853}.st5{clip-path:url(#SVGID_8_);fill:#4285f4}</style>
</svg>
